<svg width="14" height="8" viewBox="0 0 14 8" fill="none" xmlns="http://www.w3.org/2000/svg">
<path d="M9.23896 0.0977618L8.62537 0.643692C8.47677 0.775905 8.47921 0.990956 8.63078 1.12047L11.1543 3.27677H0.375167C0.167981 3.27677 0 3.42623 0 3.61057V4.38943C0 4.57378 0.167981 4.72323 0.375167 4.72323H11.1543L8.63081 6.87953C8.47921 7.00904 8.47678 7.22409 8.6254 7.35631L9.23899 7.90224C9.38549 8.03259 9.62304 8.03259 9.76957 7.90224L13.8901 4.23602C14.0366 4.10568 14.0366 3.89432 13.8901 3.76395L9.76951 0.0977618C9.623 -0.0325873 9.38546 -0.0325873 9.23896 0.0977618Z" fill="black"/>
</svg>
