<svg width="14" height="8" viewBox="0 0 14 8" fill="none" xmlns="http://www.w3.org/2000/svg">
<path opacity="0.5" d="M4.76104 7.90224L5.37463 7.35631C5.52323 7.22409 5.52079 7.00904 5.36922 6.87953L2.84566 4.72323L13.6248 4.72323C13.832 4.72323 14 4.57377 14 4.38943L14 3.61057C14 3.42622 13.832 3.27677 13.6248 3.27677L2.84566 3.27676L5.36919 1.12047C5.52079 0.990955 5.52323 0.775904 5.3746 0.643691L4.76101 0.0977608C4.61451 -0.0325879 4.37697 -0.0325879 4.23043 0.0977608L0.109878 3.76397C-0.0366245 3.89432 -0.0366246 4.10567 0.109878 4.23605L4.23049 7.90224C4.377 8.03259 4.61454 8.03259 4.76104 7.90224Z" fill="black"/>
</svg>
