<svg width="88" height="88" viewBox="0 0 88 88" fill="none" xmlns="http://www.w3.org/2000/svg">
<circle cx="44" cy="44" r="44" fill="#FFD459"/>
<path d="M35.7917 55C35.6564 55 35.5211 54.9655 35.399 54.8964C35.1523 54.7568 35 54.4966 35 54.2142V33.7845C35 33.5021 35.1523 33.242 35.399 33.1024C35.6479 32.9635 35.9502 32.9665 36.1945 33.1077L53.6111 43.3226C53.8524 43.4646 54 43.7217 54 43.9994C54 44.2772 53.8524 44.5343 53.6111 44.6762L36.1945 54.8911C36.07 54.9632 35.9308 55 35.7917 55ZM36.5833 35.1611V52.8377L51.6521 43.9994L36.5833 35.1611Z" fill="black"/>
</svg>
