<svg width="30" height="30" viewBox="0 0 30 30" fill="none" xmlns="http://www.w3.org/2000/svg">
<path d="M25.6068 4.39339C22.7737 1.56028 19.0069 0 15.0002 0C11.5254 0 8.13807 1.21564 5.46199 3.42285C5.24684 3.60021 5.21631 3.91843 5.39373 4.13353C5.57121 4.34869 5.88949 4.3791 6.10447 4.20173C8.60008 2.14335 11.7593 1.00968 15.0002 1.00968C22.7145 1.00968 28.9904 7.28562 28.9904 14.9999C28.9904 18.4631 27.7148 21.7867 25.3986 24.3586C25.2121 24.5658 25.2288 24.885 25.436 25.0715C25.5325 25.1584 25.6533 25.2013 25.7738 25.2013C25.9118 25.2013 26.0494 25.1449 26.149 25.0342C28.6325 22.2767 30.0002 18.713 30.0002 14.9999C30.0001 10.9933 28.4399 7.2265 25.6068 4.39339Z" fill="#2F37BA"/>
<path d="M24.7076 25.7748C24.5281 25.5614 24.2097 25.5337 23.9962 25.7132C21.4825 27.8264 18.2875 28.9902 14.9999 28.9902C7.28568 28.9902 1.00974 22.7142 1.00974 15C1.00974 11.4884 2.31678 8.13008 4.69017 5.54394C4.87872 5.33851 4.86507 5.01918 4.65958 4.83062C4.4541 4.64207 4.13464 4.6559 3.94627 4.86127C1.40144 7.6342 0 11.2349 0 15C0 19.0067 1.56028 22.7735 4.39339 25.6066C7.22656 28.4397 10.9934 30 15 30C18.525 30 21.9506 28.7521 24.646 26.4861C24.8594 26.3067 24.887 25.9882 24.7076 25.7748Z" fill="#2F37BA"/>
<path d="M16.9551 11.0771H13.0449C12.766 11.0771 12.54 11.3032 12.54 11.582V24.8123C12.54 25.0911 12.766 25.3172 13.0449 25.3172H16.9551C17.234 25.3172 17.46 25.0911 17.46 24.8123V11.582C17.46 11.3031 17.234 11.0771 16.9551 11.0771ZM16.4503 24.3075H13.5498V12.0868H16.4503V24.3075Z" fill="#2F37BA"/>
<path d="M14.9998 4.61133C13.4512 4.61133 12.1914 5.8712 12.1914 7.41971C12.1914 8.96828 13.4512 10.2281 14.9998 10.2281C16.5484 10.2281 17.8082 8.96822 17.8082 7.41971C17.8082 5.87115 16.5484 4.61133 14.9998 4.61133ZM14.9998 9.21841C14.008 9.21841 13.2011 8.41152 13.2011 7.41971C13.2011 6.4279 14.008 5.62101 14.9998 5.62101C15.9916 5.62101 16.7985 6.4279 16.7985 7.41971C16.7985 8.41152 15.9916 9.21841 14.9998 9.21841Z" fill="#2F37BA"/>
</svg>
