<svg width="30" height="30" viewBox="0 0 30 30" fill="none" xmlns="http://www.w3.org/2000/svg">
<path d="M0.708506 25.9464C0.821218 25.7279 1.10262 25.6361 1.33665 25.7414C1.57081 25.8465 1.66926 26.1087 1.55649 26.3271C1.14817 27.118 0.941093 27.9678 0.941093 28.8529V29.0022C0.941093 29.0685 0.99902 29.1225 1.07014 29.1225H20.3366C20.4078 29.1225 20.4656 29.0685 20.4656 29.0022V28.8529C20.4656 25.638 17.6612 23.0225 14.214 23.0225H7.19268C5.45305 23.0225 3.83744 23.6728 2.64353 24.8537C2.46516 25.0301 2.16736 25.0382 1.97831 24.8719C1.78926 24.7057 1.78047 24.4279 1.95877 24.2516C3.24234 22.9821 4.94949 22.2458 6.80083 22.1546V19.9486C6.64614 19.8106 6.49925 19.665 6.36298 19.5108C6.19624 19.5877 6.01039 19.6346 5.80551 19.6487C5.77177 19.6509 5.73804 19.6521 5.70436 19.6521C5.19131 19.6521 4.6917 19.3843 4.28753 18.8898C3.92936 18.4514 3.69036 17.8724 3.64845 17.3411C3.57319 16.3883 4.14787 15.6965 5.13483 15.5087V13.2731C5.13483 12.9278 5.04442 12.5733 4.87328 12.2481C4.65049 11.8246 4.53753 11.3695 4.53753 10.8953C4.53746 9.47761 5.56306 8.24972 7.03159 7.90934C7.32016 7.84255 7.62405 7.97485 7.75392 8.22464C8.05065 8.7964 8.65763 9.15153 9.33799 9.15153H12.8226C12.8336 9.15153 12.8445 9.15224 12.8555 9.15229V7.39595C12.8555 5.30655 14.6782 3.60669 16.9186 3.60669H19.877C22.1174 3.60669 23.9401 5.30655 23.9401 7.39595V9.98948C24.9702 10.1572 25.5739 10.8593 25.4969 11.8345C25.4125 12.9032 24.5975 14.0395 23.5834 14.1386C23.3062 14.8244 22.8807 15.4363 22.3445 15.9435V16.5534H23.0347C26.8754 16.5534 30 19.4675 30 23.0494V24.0125C30 24.5525 29.529 24.9917 28.9501 24.9917H20.0925C20.92 26.0842 21.4068 27.4165 21.4068 28.8528V29.0021C21.4068 29.5525 20.9267 30.0002 20.3366 30.0002H1.0702C0.480064 30.0002 0 29.5525 0 29.0021V28.8528C0 27.8349 0.238367 26.857 0.708506 25.9464ZM16.3706 18.3577C16.6189 18.0539 16.791 17.6397 16.8197 17.2766C16.8567 16.8072 16.6482 16.5113 16.1995 16.3932C16.1866 17.2464 15.9451 18.0487 15.5286 18.7491C15.5713 18.7614 15.6178 18.7697 15.6703 18.7733C15.884 18.7875 16.1459 18.6326 16.3706 18.3577ZM7.74204 22.1448H13.6647V20.5809C12.8378 21.0636 11.8617 21.3438 10.8163 21.3438H10.52C9.50435 21.3438 8.55365 21.08 7.74204 20.6223V22.1448ZM4.58703 17.2766C4.61568 17.6396 4.78777 18.0539 5.03606 18.3577C5.26067 18.6325 5.52323 18.788 5.7364 18.7732C5.76574 18.7712 5.79175 18.7675 5.81638 18.7632C5.3982 18.0653 5.15399 17.2655 5.13734 16.4144C4.73744 16.5443 4.55198 16.8326 4.58703 17.2766ZM9.33792 10.0292C8.3984 10.0292 7.52077 9.56333 7.03423 8.82429C6.10752 9.13284 5.47856 9.95561 5.47862 10.8953C5.47862 11.2342 5.55917 11.5593 5.71818 11.8614C5.95228 12.3063 6.07598 12.7945 6.07598 13.2731V16.3216C6.07598 18.6069 8.0695 20.4662 10.52 20.4662H10.8163C13.2667 20.4662 15.2602 18.6069 15.2602 16.3216V12.3028C15.2602 11.0492 14.1667 10.0293 12.8225 10.0292H9.33792ZM19.877 4.48442H16.9185C15.6015 4.48442 14.4733 5.24931 14.0154 6.32743C14.421 6.07794 14.9061 5.93222 15.4273 5.93222H21.3682C21.8893 5.93222 22.3745 6.07794 22.7801 6.32743C22.3222 5.24925 21.194 4.48442 19.877 4.48442ZM19.5068 17.3771C19.4752 17.3831 19.4437 17.386 19.4126 17.386C19.1935 17.386 18.9973 17.2425 18.952 17.0344C18.9002 16.7969 19.0647 16.5652 19.3194 16.5169C20.9744 16.2032 22.3082 15.0708 22.8001 13.5618C22.8695 13.3488 23.099 13.2181 23.3339 13.2575C23.3613 13.2622 23.3858 13.2652 23.409 13.2667C23.8973 13.3018 24.4993 12.517 24.5583 11.7701C24.6037 11.1956 24.2816 10.8807 23.6013 10.8339C23.5681 10.8316 23.5356 10.8316 23.502 10.8338C23.3721 10.8424 23.2438 10.7998 23.1485 10.7168C23.0531 10.6338 22.9989 10.5176 22.9989 10.3959V9.74104V8.33063C22.9989 7.49204 22.2674 6.80983 21.3683 6.80983H15.4274C14.5282 6.80983 13.7967 7.4921 13.7967 8.33063V9.28548C14.4839 9.47884 15.079 9.87101 15.5056 10.3902C15.5053 10.3828 15.5044 10.3755 15.5044 10.368C15.5044 10.0097 15.8158 9.71919 16.2001 9.71919C16.5843 9.71919 16.8958 10.0096 16.8958 10.368C16.8958 10.7263 16.5843 11.0168 16.2001 11.0168C16.0799 11.0168 15.9668 10.9884 15.8681 10.9383C16.0818 11.3514 16.2016 11.8143 16.2016 12.3027V15.4965C17.2315 15.6643 17.8354 16.3659 17.7584 17.3411C17.7337 17.6544 17.6401 17.984 17.4943 18.2918H19.887C20.7231 18.2918 21.4035 17.6574 21.4035 16.8775V16.657C20.834 16.9994 20.1935 17.247 19.5068 17.3771ZM19.3849 24.114H28.9501C29.01 24.114 29.0588 24.0685 29.0588 24.0126V23.0494C29.0588 19.9515 26.3564 17.4312 23.0347 17.4312H22.2715C22.0052 18.4284 21.0372 19.1696 19.8868 19.1696H16.9972C16.9509 19.1696 16.9044 19.1679 16.8579 19.1655C16.5086 19.4827 16.1098 19.6521 15.7024 19.6521C15.6687 19.6521 15.635 19.6509 15.6012 19.6487C15.377 19.6333 15.1728 19.5786 14.9933 19.4871C14.8716 19.6263 14.7425 19.7596 14.6058 19.886V22.1548C16.4379 22.247 18.0899 22.9814 19.3068 24.1205C19.3323 24.1166 19.3582 24.114 19.3849 24.114Z" fill="#2F37BA"/>
<path d="M20.5953 11.0166C20.2111 11.0166 19.8996 10.7261 19.8996 10.3678C19.8996 10.0095 20.2111 9.71899 20.5953 9.71899C20.9795 9.71899 21.291 10.0095 21.291 10.3678C21.291 10.7261 20.9795 11.0166 20.5953 11.0166Z" fill="#2F37BA"/>
<path d="M12.0067 7.04801C12.0441 7.28127 11.9388 7.51037 11.7319 7.64596C11.6174 7.72096 11.4847 7.75898 11.3511 7.75898C11.2433 7.75898 11.1351 7.7342 11.0357 7.68422L9.45451 6.88875C8.96936 6.98303 8.43626 7.03078 7.86673 7.03078C6.52461 7.03078 5.38982 6.76148 4.58513 6.25201C3.63254 5.64896 3.12904 4.71023 3.12904 3.53748C3.12904 1.3224 4.90014 0 7.8668 0C9.10092 0 10.1721 0.238418 10.9648 0.689473C11.1866 0.815684 11.2567 1.0858 11.1214 1.2927C10.986 1.49965 10.6964 1.56498 10.4746 1.43877C9.82959 1.07174 8.92783 0.877793 7.8668 0.877793C6.4489 0.877793 4.07019 1.22332 4.07019 3.53742C4.07019 5.8132 6.4489 6.15299 7.8668 6.15299C8.43312 6.15299 8.95359 6.10078 9.41361 5.99789C9.52626 5.97264 9.64494 5.98717 9.74678 6.03838L10.9936 6.66568L10.8289 5.64199C10.8066 5.50277 10.8571 5.36203 10.9649 5.26348C11.4284 4.83984 11.6633 4.25912 11.6633 3.53742C11.6633 3.27486 11.6322 3.02766 11.5709 2.80266C11.5068 2.56775 11.659 2.32893 11.9109 2.26916C12.1624 2.20939 12.419 2.35137 12.483 2.58633C12.5636 2.88199 12.6045 3.20203 12.6045 3.53748C12.6045 4.4158 12.3319 5.14981 11.7936 5.72291L12.0067 7.04801Z" fill="#2F37BA"/>
</svg>
