<svg width="30" height="23" viewBox="0 0 30 23" fill="none" xmlns="http://www.w3.org/2000/svg">
<path d="M29.8606 4.61363L25.386 0.139001C25.2007 -0.0463336 24.9002 -0.0463336 24.7148 0.139001L11.5599 13.2941C11.478 13.3759 11.3691 13.421 11.2534 13.421C11.1377 13.421 11.0288 13.3759 10.947 13.2941L8.30629 10.6534C8.12096 10.468 7.82049 10.468 7.63509 10.6534C7.44976 10.8386 7.44976 11.1392 7.63509 11.3245L10.2758 13.9653C10.5369 14.2264 10.8842 14.3702 11.2534 14.3702C11.6227 14.3702 11.9699 14.2263 12.231 13.9653L25.0505 1.14583L28.8539 4.9492L25.4518 8.35119C25.2665 8.53647 25.2665 8.837 25.4518 9.02234C25.6371 9.20761 25.9376 9.20767 26.123 9.02234L29.8606 5.28477C29.9495 5.19582 29.9996 5.07506 29.9996 4.9492C29.9996 4.82334 29.9496 4.70263 29.8606 4.61363Z" fill="#2F37BA"/>
<path d="M24.7814 9.69409C24.5961 9.50869 24.2956 9.50875 24.1102 9.69409L13.1559 20.6484C12.6479 21.1564 11.9726 21.4361 11.2542 21.4361C10.5358 21.4361 9.86041 21.1563 9.35246 20.6484L1.14583 12.4418L4.94926 8.63839L6.29342 9.98255C6.47869 10.1678 6.77916 10.1679 6.96461 9.98255C7.14995 9.79727 7.14995 9.49674 6.96461 9.31141L5.28483 7.63168C5.09949 7.44634 4.79902 7.44634 4.61363 7.63168L0.139001 12.1062C-0.0463336 12.2915 -0.0463336 12.5921 0.139001 12.7774L8.68114 21.3196C9.36845 22.0069 10.2822 22.3854 11.2541 22.3854C12.2259 22.3854 13.1397 22.0069 13.8271 21.3196L24.7814 10.3652C24.9668 10.18 24.9668 9.87942 24.7814 9.69409Z" fill="#2F37BA"/>
</svg>
