<svg width="30" height="33" viewBox="0 0 30 33" fill="none" xmlns="http://www.w3.org/2000/svg">
<path d="M25.4974 22.4356C25.3041 22.2467 24.9908 22.2467 24.7975 22.4356L21.985 25.1836L20.7165 23.9441C20.5232 23.7553 20.2101 23.7553 20.0169 23.9441L18.3793 25.5441C18.1861 25.7329 18.1861 26.0388 18.3793 26.2276C18.3793 26.2276 21.6328 29.4064 21.6353 29.4089C21.8258 29.5952 22.1445 29.5952 22.3349 29.4089C22.3349 29.4089 27.1272 24.7269 27.1349 24.7193C27.3259 24.5325 27.3256 24.2221 27.1349 24.0355L25.4974 22.4356ZM21.985 28.3835L19.4286 25.886L20.3665 24.9696L21.6351 26.209C21.8283 26.3978 22.1417 26.3978 22.3347 26.209L25.1475 23.461L26.0852 24.3774L21.985 28.3835Z" fill="#2F37BA"/>
<path d="M4.0963 12.9705H18.7282C19.0014 12.9705 19.223 12.7542 19.223 12.4871C19.223 12.2202 19.0014 12.0037 18.7282 12.0037H4.0963C3.82291 12.0037 3.60156 12.2202 3.60156 12.4871C3.60156 12.7542 3.82291 12.9705 4.0963 12.9705Z" fill="#2F37BA"/>
<path d="M4.0963 16.4617H18.7282C19.0014 16.4617 19.223 16.2454 19.223 15.9783C19.223 15.7114 19.0014 15.4949 18.7282 15.4949H4.0963C3.82291 15.4949 3.60156 15.7114 3.60156 15.9783C3.60156 16.2454 3.82291 16.4617 4.0963 16.4617Z" fill="#2F37BA"/>
<path d="M4.0963 19.9532H13.4348C13.7079 19.9532 13.9295 19.7366 13.9295 19.4697C13.9295 19.2029 13.7079 18.9863 13.4348 18.9863H4.0963C3.82291 18.9863 3.60156 19.2029 3.60156 19.4697C3.60156 19.7366 3.82291 19.9532 4.0963 19.9532Z" fill="#2F37BA"/>
<path d="M4.0963 23.4444H13.4587C13.7319 23.4444 13.9535 23.2278 13.9535 22.961C13.9535 22.6938 13.7319 22.4775 13.4587 22.4775H4.0963C3.82291 22.4775 3.60156 22.6938 3.60156 22.961C3.60156 23.2278 3.82291 23.4444 4.0963 23.4444Z" fill="#2F37BA"/>
<path d="M2.00885 30.8363H17.548C18.8661 32.1694 20.7136 33 22.7562 33C24.2487 33 25.6821 32.5597 26.902 31.7265C27.1259 31.5735 27.1805 31.2721 27.0238 31.0533C26.8674 30.8345 26.559 30.7812 26.3351 30.9342C25.2822 31.653 24.0448 32.0332 22.7562 32.0332C19.361 32.0332 16.5016 29.2381 16.5016 25.922C16.5016 22.6271 19.3662 19.811 22.7562 19.811C26.1609 19.811 29.0105 22.5956 29.0105 25.922C29.0105 27.3158 28.5428 28.6283 27.6577 29.7179C27.4879 29.9269 27.5237 30.231 27.7379 30.3969C27.9517 30.5629 28.263 30.5279 28.4328 30.3189C29.4581 29.0568 30 27.5363 30 25.922C30 22.8438 27.9783 20.2186 25.1642 19.2468C25.1642 19.2468 25.1642 7.91867 25.1642 7.91842C25.1642 7.79782 25.1134 7.65834 25.0194 7.57677C25.0194 7.57677 17.4102 0.141747 17.4099 0.141747C17.3182 0.0518647 17.1899 0 17.06 0H2.00885C0.901095 0 0 0.88044 0 1.9628V7.30158C0 7.56846 0.221602 7.78498 0.494739 7.78498C0.767876 7.78498 0.989478 7.56846 0.989478 7.30158V1.9628C0.989478 1.41369 1.44685 0.966797 2.00885 0.966797H16.5655V6.39672C16.5655 7.50224 17.4859 8.40182 18.6177 8.40182H24.175V18.9804C23.7083 18.8898 23.2321 18.8442 22.7562 18.8442C18.7619 18.8442 15.5124 22.0193 15.5124 25.922C15.5124 27.3191 15.9445 28.7101 16.7428 29.8695H2.00885C1.44685 29.8695 0.989478 29.4226 0.989478 28.8735V9.22989C0.989478 8.96276 0.767876 8.74649 0.494739 8.74649C0.221602 8.74649 0 8.96276 0 9.22989V28.8735C0 29.9556 0.901095 30.8363 2.00885 30.8363ZM18.6177 7.43502C18.0317 7.43502 17.5547 6.96925 17.5547 6.39672V1.65035L23.4751 7.43502H18.6177Z" fill="#2F37BA"/>
</svg>
